<svg xmlns="http://www.w3.org/2000/svg" width="100" height="100"><circle cx="50" cy="50" r="50" fill="#E74C3C"/><path id="loop-sign" fill="none" stroke="#F0C419" stroke-dasharray="216 0" stroke-dashoffset="43" stroke-linecap="square" stroke-miterlimit="10" stroke-width="8" d="M12.5,50.5c0,10,7,17,17,17c17,0,26-34,43-34c10,0,18,7,18,17s-8,17-18,17c-17,0-26-34-43-34C19.5,33.5,12.5,40.5,12.5,50.5z" display="inline"/><path id="shade" d="M45.938,50.5l5.047,6.516c0,0-2.141,2.797-3.5,4.25c0,0-3.621-3.552-5.746-5.583C43.047,54.281,45.938,50.5,45.938,50.5z" enable-background="new" opacity=".15"/></svg>